<svg xmlns="http://www.w3.org/2000/svg" width="120" height="120" viewBox="0 0 120 120" fill="none">
  <g clip-path="url(#clip0_60_8)">
    <path d="M60 10C87.615 10 110 32.385 110 60C110 87.615 87.615 110 60 110C32.385 110 10 87.615 10 60C10 32.385 32.385 10 60 10ZM60 35C58.7754 35.0002 57.5933 35.4498 56.6782 36.2636C55.763 37.0774 55.1783 38.1988 55.035 39.415L55 40V55H40C38.7256 55.0014 37.4999 55.4894 36.5732 56.3643C35.6465 57.2391 35.0888 58.4348 35.0142 59.707C34.9395 60.9792 35.3534 62.2319 36.1713 63.2092C36.9893 64.1865 38.1495 64.8145 39.415 64.965L40 65H55V80C55.0014 81.2744 55.4894 82.5002 56.3643 83.4269C57.2391 84.3536 58.4348 84.9112 59.707 84.9859C60.9792 85.0606 62.2319 84.6467 63.2092 83.8287C64.1865 83.0108 64.8145 81.8505 64.965 80.585L65 80V65H80C81.2744 64.9986 82.5002 64.5106 83.4269 63.6358C84.3536 62.7609 84.9112 61.5653 84.9859 60.2931C85.0606 59.0208 84.6467 57.7681 83.8287 56.7909C83.0108 55.8136 81.8505 55.1855 80.585 55.035L80 55H65V40C65 38.6739 64.4732 37.4022 63.5356 36.4645C62.5979 35.5268 61.3261 35 60 35Z" fill="white"/>
  </g>
  <defs>
    <clipPath id="clip0_60_8">
      <rect width="120" height="120" fill="white"/>
    </clipPath>
  </defs>
</svg>