<svg xmlns="http://www.w3.org/2000/svg" width="150" height="150" viewBox="0 0 150 150" fill="none">
  <g clip-path="url(#clip0_32_6)">
    <path d="M92.2425 32.3584L126.892 67.0075C128.612 68.7302 129.579 71.0653 129.579 73.5C129.579 75.9347 128.612 78.2699 126.892 79.9925L92.2486 114.648C90.5251 116.371 88.1875 117.34 85.75 117.34C83.3125 117.34 80.9749 116.371 79.2514 114.648C77.5278 112.924 76.5596 110.587 76.5596 108.149C76.5596 105.712 77.5278 103.374 79.2514 101.651L98.2144 82.6875H27.5625C25.1258 82.6875 22.7889 81.7195 21.066 79.9966C19.343 78.2736 18.375 75.9367 18.375 73.5C18.375 71.0633 19.343 68.7265 21.066 67.0035C22.7889 65.2805 25.1258 64.3125 27.5625 64.3125H98.2144L79.2575 45.3495C77.5348 43.626 76.5673 41.2887 76.5678 38.8518C76.5684 36.4149 77.537 34.078 79.2606 32.3553C80.9841 30.6326 83.3214 29.6651 85.7583 29.6657C88.1952 29.6662 90.532 30.6348 92.2548 32.3584H92.2425Z" fill="white"/>
  </g>
  <defs>
    <clipPath id="clip0_32_6">
      <rect width="150" height="150" fill="white"/>
    </clipPath>
  </defs>
</svg>