<svg xmlns="http://www.w3.org/2000/svg" width="208" height="208" viewBox="0 0 208 208" fill="none">
    <g clip-path="url(#clip0_65_75)">
        <path fill-rule="evenodd" clip-rule="evenodd" d="M43.3333 90.272C43.4899 77.1328 48.2347 64.4616 56.7467 54.4511C65.2588 44.4407 77.0025 37.7208 89.9457 35.4542C102.889 33.1877 116.217 35.5171 127.624 42.0394C139.032 48.5617 147.8 58.8665 152.412 71.1707C164.539 74.5151 175.044 82.1411 181.98 92.6363C188.916 103.131 191.813 115.785 190.136 128.252C188.458 140.72 182.32 152.157 172.856 160.446C163.393 168.735 151.247 173.313 138.667 173.333H60.6667C50.7062 173.34 41.0475 169.915 33.3163 163.635C25.5852 157.354 20.2535 148.603 18.2188 138.852C16.1841 129.102 17.5705 118.948 22.1446 110.1C26.7188 101.252 34.2015 94.2497 43.3333 90.272Z" fill="url(#paint0_linear_65_75)"/>
    </g>
    <defs>
        <linearGradient id="paint0_linear_65_75" x1="103.953" y1="34.6097" x2="103.953" y2="173.333" gradientUnits="userSpaceOnUse">
        <stop stop-color="white"/>
        <stop offset="0.68" stop-color="#EEF5F9"/>
        </linearGradient>
        <clipPath id="clip0_65_75">
        <rect width="208" height="208" fill="white"/>
        </clipPath>
    </defs>
</svg>