<svg xmlns="http://www.w3.org/2000/svg" width="120" height="120" viewBox="0 0 120 120" fill="none">
  <g clip-path="url(#clip0_61_12)">
    <path d="M73.1 13.31C74.049 13.5755 74.9364 14.0255 75.7115 14.6342C76.4865 15.2428 77.134 15.9983 77.6169 16.8573C78.0999 17.7164 78.4088 18.6622 78.526 19.6407C78.6432 20.6192 78.5664 21.6112 78.3 22.56L56.145 101.495C55.6079 103.41 54.3319 105.034 52.5977 106.009C50.8634 106.984 48.813 107.229 46.8975 106.692C44.982 106.155 43.3582 104.879 42.3835 103.145C41.4088 101.411 41.1629 99.3605 41.7 97.4449L63.855 18.5C64.121 17.5514 64.5714 16.6645 65.1803 15.89C65.7892 15.1155 66.5447 14.4686 67.4037 13.9862C68.2627 13.5037 69.2083 13.1953 70.1866 13.0784C71.1648 12.9615 72.1565 13.0385 73.105 13.305L73.1 13.31ZM37.8 33.485C39.2045 34.8912 39.9934 36.7975 39.9934 38.785C39.9934 40.7725 39.2045 42.6787 37.8 44.085L21.9 60L37.81 75.91C39.2163 77.3169 40.0061 79.2249 40.0056 81.2142C40.0052 83.2035 39.2145 85.1111 37.8075 86.5175C36.4005 87.9238 34.4925 88.7136 32.5032 88.7131C30.5139 88.7126 28.6063 87.9219 27.2 86.515L5.985 65.3C4.58049 63.8937 3.7916 61.9875 3.7916 60C3.7916 58.0125 4.58049 56.1062 5.985 54.7L27.195 33.485C27.8915 32.788 28.7185 32.2352 29.6288 31.858C30.539 31.4807 31.5147 31.2866 32.5 31.2866C33.4853 31.2866 34.461 31.4807 35.3712 31.858C36.2815 32.2352 37.1035 32.788 37.8 33.485ZM82.2 44.085C81.4631 43.3984 80.8721 42.5704 80.4622 41.6504C80.0522 40.7304 79.8318 39.7372 79.8141 38.7302C79.7963 37.7232 79.9815 36.7229 80.3587 35.789C80.736 34.8551 81.2974 34.0068 82.0096 33.2946C82.7218 32.5824 83.5701 32.021 84.504 31.6438C85.4379 31.2666 86.4382 31.0813 87.4452 31.0991C88.4522 31.1168 89.4454 31.3373 90.3654 31.7472C91.2853 32.1571 92.1133 32.7481 92.8 33.485L114.015 54.695C115.421 56.1014 116.211 58.0087 116.211 59.9975C116.211 61.9862 115.421 63.8935 114.015 65.3L92.805 86.515C92.1086 87.2116 91.2819 87.7643 90.372 88.1415C89.462 88.5186 88.4867 88.7129 87.5017 88.7131C86.5167 88.7133 85.5413 88.5195 84.6312 88.1428C83.7211 87.7661 82.8941 87.2138 82.1975 86.5175C81.5008 85.8211 80.9481 84.9944 80.571 84.0845C80.1938 83.1745 79.9996 82.1992 79.9993 81.2142C79.9991 80.2292 80.1929 79.2538 80.5696 78.3437C80.9463 77.4336 81.4986 76.6066 82.195 75.91L98.105 60L82.2 44.085Z" fill="white"/>
  </g>
  <defs>
    <clipPath id="clip0_61_12">
      <rect width="120" height="120" fill="white"/>
    </clipPath>
  </defs>
</svg>