<svg xmlns="http://www.w3.org/2000/svg" width="134" height="134" viewBox="0 0 134 134" fill="none">
  <g clip-path="url(#clip0_61_16)">
    <path d="M22.3333 89.3333C23.7009 89.3335 25.0208 89.8356 26.0427 90.7443C27.0647 91.6531 27.7176 92.9053 27.8776 94.2634L27.9167 94.9167V106.083H39.0833C40.5064 106.085 41.8752 106.63 42.91 107.607C43.9448 108.584 44.5675 109.919 44.6509 111.339C44.7343 112.76 44.2721 114.159 43.3587 115.25C42.4453 116.342 41.1497 117.043 39.7366 117.211L39.0833 117.25H27.9167C25.0994 117.251 22.386 116.187 20.3203 114.271C18.2545 112.356 16.9892 109.73 16.7779 106.921L16.75 106.083V94.9167C16.75 93.4359 17.3382 92.0157 18.3853 90.9687C19.4324 89.9216 20.8525 89.3333 22.3333 89.3333ZM111.667 89.3333C113.147 89.3333 114.568 89.9216 115.615 90.9687C116.662 92.0157 117.25 93.4359 117.25 94.9167V106.083C117.25 109.045 116.074 111.885 113.979 113.979C111.885 116.074 109.045 117.25 106.083 117.25H94.9167C93.4359 117.25 92.0157 116.662 90.9687 115.615C89.9216 114.568 89.3333 113.147 89.3333 111.667C89.3333 110.186 89.9216 108.766 90.9687 107.719C92.0157 106.672 93.4359 106.083 94.9167 106.083H106.083V94.9167C106.083 93.4359 106.672 92.0157 107.719 90.9687C108.766 89.9216 110.186 89.3333 111.667 89.3333ZM82.6333 77.3683C83.1542 76.8428 83.7744 76.426 84.4578 76.1423C85.1411 75.8586 85.8741 75.7136 86.614 75.7156C87.3539 75.7177 88.0861 75.8667 88.7679 76.1542C89.4497 76.4417 90.0675 76.8618 90.5855 77.3902C91.1035 77.9186 91.5113 78.5446 91.7853 79.232C92.0592 79.9193 92.1937 80.6543 92.1811 81.3941C92.1685 82.1339 92.009 82.8638 91.7118 83.5414C91.4146 84.2191 90.9857 84.8309 90.45 85.3413C84.1931 91.4872 75.7705 94.9265 67 94.9167C58.2295 94.9265 49.8069 91.4872 43.55 85.3413C43.0143 84.8309 42.5854 84.2191 42.2882 83.5414C41.991 82.8638 41.8315 82.1339 41.8189 81.3941C41.8063 80.6543 41.9408 79.9193 42.2147 79.232C42.4887 78.5446 42.8965 77.9186 43.4145 77.3902C43.9325 76.8618 44.5503 76.4417 45.2321 76.1542C45.9139 75.8667 46.6461 75.7177 47.386 75.7156C48.1259 75.7136 48.8589 75.8586 49.5422 76.1423C50.2256 76.426 50.8458 76.8428 51.3667 77.3683C55.5364 81.4676 61.1527 83.7602 67 83.75C73.0858 83.75 78.5966 81.3213 82.6333 77.3683ZM47.4583 44.6667C49.6795 44.6667 51.8097 45.549 53.3804 47.1196C54.951 48.6903 55.8333 50.8205 55.8333 53.0417C55.8333 55.2629 54.951 57.3931 53.3804 58.9637C51.8097 60.5343 49.6795 61.4167 47.4583 61.4167C45.2371 61.4167 43.1069 60.5343 41.5363 58.9637C39.9657 57.3931 39.0833 55.2629 39.0833 53.0417C39.0833 50.8205 39.9657 48.6903 41.5363 47.1196C43.1069 45.549 45.2371 44.6667 47.4583 44.6667ZM86.5417 44.6667C88.7629 44.6667 90.8931 45.549 92.4637 47.1196C94.0343 48.6903 94.9167 50.8205 94.9167 53.0417C94.9167 55.2629 94.0343 57.3931 92.4637 58.9637C90.8931 60.5343 88.7629 61.4167 86.5417 61.4167C84.3205 61.4167 82.1903 60.5343 80.6196 58.9637C79.049 57.3931 78.1667 55.2629 78.1667 53.0417C78.1667 50.8205 79.049 48.6903 80.6196 47.1196C82.1903 45.549 84.3205 44.6667 86.5417 44.6667ZM39.0833 16.75C40.5641 16.75 41.9843 17.3382 43.0313 18.3853C44.0784 19.4324 44.6667 20.8525 44.6667 22.3333C44.6667 23.8141 44.0784 25.2343 43.0313 26.2813C41.9843 27.3284 40.5641 27.9167 39.0833 27.9167H27.9167V39.0833C27.9167 40.5641 27.3284 41.9843 26.2813 43.0313C25.2343 44.0784 23.8141 44.6667 22.3333 44.6667C20.8525 44.6667 19.4324 44.0784 18.3853 43.0313C17.3382 41.9843 16.75 40.5641 16.75 39.0833V27.9167C16.75 24.9551 17.9265 22.1148 20.0206 20.0206C22.1148 17.9265 24.9551 16.75 27.9167 16.75H39.0833ZM106.083 16.75C109.045 16.75 111.885 17.9265 113.979 20.0206C116.074 22.1148 117.25 24.9551 117.25 27.9167V39.0833C117.25 40.5641 116.662 41.9843 115.615 43.0313C114.568 44.0784 113.147 44.6667 111.667 44.6667C110.186 44.6667 108.766 44.0784 107.719 43.0313C106.672 41.9843 106.083 40.5641 106.083 39.0833V27.9167H94.9167C93.4359 27.9167 92.0157 27.3284 90.9687 26.2813C89.9216 25.2343 89.3333 23.8141 89.3333 22.3333C89.3333 20.8525 89.9216 19.4324 90.9687 18.3853C92.0157 17.3382 93.4359 16.75 94.9167 16.75H106.083Z" fill="white"/>
  </g>
  <defs>
    <clipPath id="clip0_61_16">
      <rect width="134" height="134" fill="white"/>
    </clipPath>
  </defs>
</svg>