<svg xmlns="http://www.w3.org/2000/svg" width="38" height="38" viewBox="0 0 38 38" fill="none">
  <g clip-path="url(#clip0_11_39)">
    <path fill-rule="evenodd" clip-rule="evenodd" d="M22.2221 4.4476C22.8079 4.02643 23.6312 3.8301 24.4403 4.12618C26.1604 4.75632 27.758 5.68047 29.1618 6.85743C29.8221 7.4116 30.0643 8.22068 29.9915 8.93635C29.8727 10.1286 30.0817 11.2797 30.6565 12.2708C31.1632 13.1528 31.9263 13.8494 32.8573 14.3403L33.2136 14.5144C33.8691 14.8105 34.4517 15.4264 34.599 16.2767C34.9117 18.0788 34.9117 19.9213 34.599 21.7233C34.4676 22.4897 33.9815 23.0644 33.4067 23.3874L33.2136 23.4872C32.1211 23.978 31.2281 24.738 30.6549 25.7292C30.0817 26.7219 29.8727 27.8714 29.9915 29.0637C30.0627 29.7793 29.8221 30.59 29.1618 31.1426C27.758 32.3196 26.1604 33.2437 24.4403 33.8738C24.0727 34.0053 23.6784 34.0448 23.292 33.9888C22.9056 33.9328 22.5388 33.7829 22.2237 33.5524C21.2483 32.8542 20.1447 32.4583 19 32.4583C17.8552 32.4583 16.7517 32.8526 15.7779 33.5524C15.4626 33.7832 15.0955 33.9332 14.7088 33.9892C14.3221 34.0452 13.9275 34.0056 13.5597 33.8738C11.8395 33.2437 10.2419 32.3196 8.83816 31.1426C8.54084 30.89 8.30981 30.5685 8.1652 30.2062C8.02059 29.8438 7.96679 29.4516 8.00849 29.0637C8.12724 27.8714 7.91666 26.7203 7.34349 25.7292C6.82146 24.8442 6.05803 24.1264 5.14266 23.6598L4.78641 23.4856C4.42912 23.3273 4.11604 23.084 3.87453 22.7768C3.63302 22.4696 3.47044 22.1079 3.40099 21.7233C3.08818 19.9213 3.08818 18.0788 3.40099 16.2767C3.53241 15.5103 4.01849 14.9356 4.59324 14.6126L4.78641 14.5144C5.87891 14.022 6.77191 13.2636 7.34507 12.2708C7.91666 11.2797 8.12724 10.1286 8.00849 8.93635C7.96679 8.54844 8.02059 8.15623 8.1652 7.79388C8.30981 7.43153 8.54084 7.11004 8.83816 6.85743C10.242 5.68047 11.8395 4.75632 13.5597 4.12618C13.9273 3.99482 14.3215 3.95543 14.7079 4.01145C15.0943 4.06748 15.4611 4.21722 15.7763 4.4476C16.7501 5.14743 17.8537 5.54168 19 5.54168C20.1463 5.54168 21.2483 5.14743 22.2221 4.4476ZM23.7373 7.24851C22.3662 8.15101 20.7496 8.70835 19 8.70835C17.2504 8.70835 15.6338 8.14943 14.2627 7.24851C13.1604 7.69343 12.1263 8.29148 11.191 9.02501C11.286 10.6606 10.9614 12.3389 10.0874 13.8542C9.21182 15.3678 7.92141 16.4873 6.45682 17.2235C6.29182 18.401 6.29182 19.5958 6.45682 20.7733C7.92141 21.5096 9.21182 22.629 10.0874 24.1458C10.9614 25.6579 11.286 27.3363 11.191 28.9718C12.1262 29.7059 13.1603 30.3045 14.2627 30.7499C15.6338 29.8474 17.2504 29.2901 19 29.2901C20.7496 29.2901 22.3662 29.849 23.7373 30.7499C24.8396 30.305 25.8736 29.7069 26.809 28.9734C26.714 27.3363 27.0386 25.6579 27.9126 24.1443C28.7866 22.629 30.0786 21.5096 31.5432 20.7718C31.7081 19.5953 31.7081 18.4016 31.5432 17.2251C30.0786 16.4873 28.7882 15.3678 27.9126 13.8526C27.0386 12.3389 26.714 10.6606 26.809 9.02343C25.8736 8.2899 24.8396 7.69343 23.7373 7.24851ZM19 12.6667C20.6797 12.6667 22.2906 13.3339 23.4783 14.5217C24.6661 15.7094 25.3333 17.3203 25.3333 19C25.3333 20.6797 24.6661 22.2906 23.4783 23.4784C22.2906 24.6661 20.6797 25.3333 19 25.3333C17.3203 25.3333 15.7094 24.6661 14.5216 23.4784C13.3339 22.2906 12.6667 20.6797 12.6667 19C12.6667 17.3203 13.3339 15.7094 14.5216 14.5217C15.7094 13.3339 17.3203 12.6667 19 12.6667ZM19 15.8333C18.1601 15.8333 17.3547 16.167 16.7608 16.7608C16.167 17.3547 15.8333 18.1602 15.8333 19C15.8333 19.8399 16.167 20.6453 16.7608 21.2392C17.3547 21.833 18.1601 22.1667 19 22.1667C19.8398 22.1667 20.6453 21.833 21.2392 21.2392C21.833 20.6453 22.1667 19.8399 22.1667 19C22.1667 18.1602 21.833 17.3547 21.2392 16.7608C20.6453 16.167 19.8398 15.8333 19 15.8333Z" fill="#121212"/>
  </g>
  <defs>
    <clipPath id="clip0_11_39">
      <rect width="38" height="38" fill="white"/>
    </clipPath>
  </defs>
</svg>