<svg xmlns="http://www.w3.org/2000/svg" version="1.1" xmlns:xlink="http://www.w3.org/1999/xlink" xmlns:svgjs="http://svgjs.dev/svgjs" viewBox="0 0 2400 800"><defs><linearGradient x1="50%" y1="0%" x2="50%" y2="100%" id="sssurf-grad"><stop stop-color="hsl(208, 77%, 50%)" stop-opacity="1" offset="0%"></stop><stop stop-color="hsl(208, 74%, 93%)" stop-opacity="1" offset="100%"></stop></linearGradient></defs><g fill="url(#sssurf-grad)" transform="matrix(1,0,0,1,0,-93.87716674804688)"><path d="M 0 332.6702216637715 Q 450 644.8300015126083 600 307.7543146253033 Q 1050 526.5350923563617 1200 342.06354732088596 Q 1650 612.1688564858536 1800 315.07409660213125 Q 2250 466.39482996166583 2400 320.39604779278034 L 2400 800 L 0 800 L 0 342.29395199463255 Z" transform="matrix(1,0,0,1,0,35)" opacity="0.05"></path><path d="M 0 332.6702216637715 Q 450 644.8300015126083 600 307.7543146253033 Q 1050 526.5350923563617 1200 342.06354732088596 Q 1650 612.1688564858536 1800 315.07409660213125 Q 2250 466.39482996166583 2400 320.39604779278034 L 2400 800 L 0 800 L 0 342.29395199463255 Z" transform="matrix(1,0,0,1,0,70)" opacity="0.21"></path><path d="M 0 332.6702216637715 Q 450 644.8300015126083 600 307.7543146253033 Q 1050 526.5350923563617 1200 342.06354732088596 Q 1650 612.1688564858536 1800 315.07409660213125 Q 2250 466.39482996166583 2400 320.39604779278034 L 2400 800 L 0 800 L 0 342.29395199463255 Z" transform="matrix(1,0,0,1,0,105)" opacity="0.37"></path><path d="M 0 332.6702216637715 Q 450 644.8300015126083 600 307.7543146253033 Q 1050 526.5350923563617 1200 342.06354732088596 Q 1650 612.1688564858536 1800 315.07409660213125 Q 2250 466.39482996166583 2400 320.39604779278034 L 2400 800 L 0 800 L 0 342.29395199463255 Z" transform="matrix(1,0,0,1,0,140)" opacity="0.53"></path><path d="M 0 332.6702216637715 Q 450 644.8300015126083 600 307.7543146253033 Q 1050 526.5350923563617 1200 342.06354732088596 Q 1650 612.1688564858536 1800 315.07409660213125 Q 2250 466.39482996166583 2400 320.39604779278034 L 2400 800 L 0 800 L 0 342.29395199463255 Z" transform="matrix(1,0,0,1,0,175)" opacity="0.68"></path><path d="M 0 332.6702216637715 Q 450 644.8300015126083 600 307.7543146253033 Q 1050 526.5350923563617 1200 342.06354732088596 Q 1650 612.1688564858536 1800 315.07409660213125 Q 2250 466.39482996166583 2400 320.39604779278034 L 2400 800 L 0 800 L 0 342.29395199463255 Z" transform="matrix(1,0,0,1,0,210)" opacity="0.84"></path><path d="M 0 332.6702216637715 Q 450 644.8300015126083 600 307.7543146253033 Q 1050 526.5350923563617 1200 342.06354732088596 Q 1650 612.1688564858536 1800 315.07409660213125 Q 2250 466.39482996166583 2400 320.39604779278034 L 2400 800 L 0 800 L 0 342.29395199463255 Z" transform="matrix(1,0,0,1,0,245)" opacity="1"></path></g></svg>